<svg width="32" height="32" viewBox="0 0 32 32" fill="none" xmlns="http://www.w3.org/2000/svg">
<path d="M16 2.66675C8.26772 2.66675 2.66699 8.26748 2.66699 16C2.66699 23.7323 8.26772 29.333 16 29.333C23.7323 29.333 29.333 23.7323 29.333 16C29.333 8.26748 23.7323 2.66675 16 2.66675ZM16 4.66675C22.6274 4.66675 27.333 9.37232 27.333 16C27.333 22.6273 22.6274 27.333 16 27.333C9.37265 27.333 4.66699 22.6273 4.66699 16C4.66699 9.37232 9.37265 4.66675 16 4.66675Z" fill="#7E869E"/>
<path d="M18.6663 11.3333H13.333C11.0075 11.3333 9.12292 13.2179 9.12292 15.5433V16.4566C9.12292 18.7821 11.0075 20.6666 13.333 20.6666H18.6663C20.9918 20.6666 22.8763 18.7821 22.8763 16.4566V15.5433C22.8763 13.2179 20.9918 11.3333 18.6663 11.3333ZM21.333 16.4566C21.333 17.658 20.4065 18.6666 19.1663 18.6666H12.833C11.5928 18.6666 10.6663 17.658 10.6663 16.4566V15.5433C10.6663 14.342 11.5928 13.3333 12.833 13.3333H19.1663C20.4065 13.3333 21.333 14.342 21.333 15.5433V16.4566Z" fill="#141F37"/>
</svg>
